<svg viewBox="0 0 24 24" xmlns="http://www.w3.org/2000/svg" xmlns:xlink="http://www.w3.org/1999/xlink" width="24.000000" height="24.000000" fill="none">
	<rect id="Icon 24 / Basket" width="24.000000" height="24.000000" x="0.000000" y="0.000000" fill="rgb(255,255,255)" fill-opacity="0" />
	<path id="Vector" d="M21.3918 9.525C20.9168 8.975 20.2251 8.66667 19.5001 8.66667L19.4251 8.66667C19.0084 4.925 15.8251 2 11.9751 2C8.12509 2 4.94176 4.925 4.52509 8.66667L4.47509 8.66667C3.75009 8.66667 3.05842 8.98333 2.58342 9.525C2.10842 10.075 1.90009 10.8 2.00009 11.5167L2.88342 17.7C3.23342 20.15 5.35842 21.9917 7.83342 21.9917L16.1418 21.9917C18.6168 21.9917 20.7418 20.15 21.0918 17.7L21.9751 11.5167C22.0751 10.8 21.8668 10.075 21.3918 9.525ZM11.9751 3.66667C14.9084 3.66667 17.3334 5.84167 17.7418 8.66667L6.20842 8.66667C6.61676 5.84167 9.04176 3.66667 11.9751 3.66667Z" fill="rgb(40,74,0)" fill-rule="nonzero" />
</svg>
