<svg viewBox="0 0 28 31.8892" xmlns="http://www.w3.org/2000/svg" xmlns:xlink="http://www.w3.org/1999/xlink" width="28.000000" height="31.889160" fill="none" customFrame="#000000">
	<defs>
		<g id="pixso_custom_effect_0">
			<effect x="0.000000" y="1.000000" visibility="visible" fill="rgb(12,12,13)" fill-opacity="0.0500000007" effectType="dropShadow" stdDeviation="4" radius="0" />
			<effect x="0.000000" y="1.000000" visibility="visible" fill="rgb(12,12,13)" fill-opacity="0.100000001" effectType="dropShadow" stdDeviation="4" radius="0" />
		</g>
		<filter id="filter_0" width="28.000000" height="31.889160" x="0.000000" y="0.000000" filterUnits="userSpaceOnUse" customEffect="url(#pixso_custom_effect_0)" color-interpolation-filters="sRGB">
			<feFlood flood-opacity="0" result="BackgroundImageFix" />
			<feColorMatrix result="hardAlpha" in="SourceAlpha" type="matrix" values="0 0 0 0 0 0 0 0 0 0 0 0 0 0 0 0 0 0 127 0 " />
			<feOffset dx="0.000000" dy="1.000000" in="hardAlpha" />
			<feGaussianBlur stdDeviation="1.33333337" />
			<feComposite k2="-1" k3="1" in2="hardAlpha" operator="out" />
			<feColorMatrix type="matrix" values="0 0 0 0 0.0470588 0 0 0 0 0.0470588 0 0 0 0 0.0509804 0 0 0 0.05 0 " />
			<feBlend result="effect_dropShadow_1" in2="BackgroundImageFix" mode="normal" />
			<feColorMatrix result="hardAlpha" in="SourceAlpha" type="matrix" values="0 0 0 0 0 0 0 0 0 0 0 0 0 0 0 0 0 0 127 0 " />
			<feOffset dx="0.000000" dy="1.000000" in="hardAlpha" />
			<feGaussianBlur stdDeviation="1.33333337" />
			<feComposite k2="-1" k3="1" in2="hardAlpha" operator="out" />
			<feColorMatrix type="matrix" values="0 0 0 0 0.0470588 0 0 0 0 0.0470588 0 0 0 0 0.0509804 0 0 0 0.1 0 " />
			<feBlend result="effect_dropShadow_2" in2="effect_dropShadow_1" mode="normal" />
			<feBlend result="shape" in="SourceGraphic" in2="effect_dropShadow_2" mode="normal" />
		</filter>
		<linearGradient id="paint_linear_0" x1="4" x2="24" y1="3" y2="26.8889999" gradientUnits="userSpaceOnUse">
			<stop stop-color="rgb(137.612,205.962,60.4022)" offset="0" stop-opacity="1" />
			<stop stop-color="rgb(21.9141,175.312,113.953)" offset="1" stop-opacity="1" />
		</linearGradient>
		<linearGradient id="paint_linear_1" x1="4" x2="24" y1="14.9445009" y2="14.9445009" gradientUnits="userSpaceOnUse">
			<stop stop-color="rgb(132.737,216.995,37.5569)" offset="0" stop-opacity="1" />
			<stop stop-color="rgb(26.311,176.538,66.3717)" offset="1" stop-opacity="1" />
		</linearGradient>
		<linearGradient id="paint_linear_2" x1="11" x2="17" y1="10" y2="16" gradientUnits="userSpaceOnUse">
			<stop stop-color="rgb(137.612,205.962,60.4022)" offset="0" stop-opacity="1" />
			<stop stop-color="rgb(21.9141,175.312,113.953)" offset="1" stop-opacity="1" />
		</linearGradient>
		<linearGradient id="paint_linear_3" x1="11" x2="17" y1="13" y2="13" gradientUnits="userSpaceOnUse">
			<stop stop-color="rgb(132.737,216.995,37.5569)" offset="0" stop-opacity="1" />
			<stop stop-color="rgb(26.311,176.538,66.3717)" offset="1" stop-opacity="1" />
		</linearGradient>
	</defs>
	<rect id="nav" width="24.000000" height="24.000000" x="2.000000" y="3.000000" fill="rgb(255,255,255)" fill-opacity="0" />
	<g id="Group 1" filter="url(#filter_0)">
		<path id="Vector" d="M14 3C11.3487 3.00291 8.80688 4.05742 6.93215 5.93215C5.05742 7.80688 4.00291 10.3487 4 13C4 18.282 12.4 25.533 13.354 26.343L14 26.889L14.646 26.343C15.6 25.533 24 18.282 24 13C23.9971 10.3487 22.9426 7.80688 21.0679 5.93215C19.1931 4.05742 16.6513 3.00291 14 3ZM14 18C13.0111 18 12.0444 17.7068 11.2221 17.1573C10.3999 16.6079 9.75904 15.827 9.3806 14.9134C9.00216 13.9998 8.90315 12.9945 9.09607 12.0245C9.289 11.0546 9.7652 10.1637 10.4645 9.46447C11.1637 8.7652 12.0546 8.289 13.0245 8.09607C13.9945 7.90315 14.9998 8.00216 15.9134 8.3806C16.827 8.75904 17.6079 9.3999 18.1573 10.2221C18.7068 11.0444 19 12.0111 19 13C18.9984 14.3256 18.4711 15.5964 17.5338 16.5338C16.5964 17.4711 15.3256 17.9984 14 18Z" fill="rgb(255,255,255)" fill-rule="nonzero" />
		<path id="Vector" d="M14 3C11.3487 3.00291 8.80688 4.05742 6.93215 5.93215C5.05742 7.80688 4.00291 10.3487 4 13C4 18.282 12.4 25.533 13.354 26.343L14 26.889L14.646 26.343C15.6 25.533 24 18.282 24 13C23.9971 10.3487 22.9426 7.80688 21.0679 5.93215C19.1931 4.05742 16.6513 3.00291 14 3ZM14 18C13.0111 18 12.0444 17.7068 11.2221 17.1573C10.3999 16.6079 9.75904 15.827 9.3806 14.9134C9.00216 13.9998 8.90315 12.9945 9.09607 12.0245C9.289 11.0546 9.7652 10.1637 10.4645 9.46447C11.1637 8.7652 12.0546 8.289 13.0245 8.09607C13.9945 7.90315 14.9998 8.00216 15.9134 8.3806C16.827 8.75904 17.6079 9.3999 18.1573 10.2221C18.7068 11.0444 19 12.0111 19 13C18.9984 14.3256 18.4711 15.5964 17.5338 16.5338C16.5964 17.4711 15.3256 17.9984 14 18Z" fill="url(#paint_linear_0)" fill-opacity="0" fill-rule="nonzero" />
		<path id="Vector" d="M14 3C11.3487 3.00291 8.80688 4.05742 6.93215 5.93215C5.05742 7.80688 4.00291 10.3487 4 13C4 18.282 12.4 25.533 13.354 26.343L14 26.889L14.646 26.343C15.6 25.533 24 18.282 24 13C23.9971 10.3487 22.9426 7.80688 21.0679 5.93215C19.1931 4.05742 16.6513 3.00291 14 3ZM14 18C13.0111 18 12.0444 17.7068 11.2221 17.1573C10.3999 16.6079 9.75904 15.827 9.3806 14.9134C9.00216 13.9998 8.90315 12.9945 9.09607 12.0245C9.289 11.0546 9.7652 10.1637 10.4645 9.46447C11.1637 8.7652 12.0546 8.289 13.0245 8.09607C13.9945 7.90315 14.9998 8.00216 15.9134 8.3806C16.827 8.75904 17.6079 9.3999 18.1573 10.2221C18.7068 11.0444 19 12.0111 19 13C18.9984 14.3256 18.4711 15.5964 17.5338 16.5338C16.5964 17.4711 15.3256 17.9984 14 18Z" fill="rgb(0,83.6719,95.625)" fill-rule="nonzero" />
		<path id="Vector" d="M14 3C11.3487 3.00291 8.80688 4.05742 6.93215 5.93215C5.05742 7.80688 4.00291 10.3487 4 13C4 18.282 12.4 25.533 13.354 26.343L14 26.889L14.646 26.343C15.6 25.533 24 18.282 24 13C23.9971 10.3487 22.9426 7.80688 21.0679 5.93215C19.1931 4.05742 16.6513 3.00291 14 3ZM14 18C13.0111 18 12.0444 17.7068 11.2221 17.1573C10.3999 16.6079 9.75904 15.827 9.3806 14.9134C9.00216 13.9998 8.90315 12.9945 9.09607 12.0245C9.289 11.0546 9.7652 10.1637 10.4645 9.46447C11.1637 8.7652 12.0546 8.289 13.0245 8.09607C13.9945 7.90315 14.9998 8.00216 15.9134 8.3806C16.827 8.75904 17.6079 9.3999 18.1573 10.2221C18.7068 11.0444 19 12.0111 19 13C18.9984 14.3256 18.4711 15.5964 17.5338 16.5338C16.5964 17.4711 15.3256 17.9984 14 18Z" fill="url(#paint_linear_1)" fill-rule="nonzero" />
		<path id="Vector" d="M14 3C11.3487 3.00291 8.80688 4.05742 6.93215 5.93215C5.05742 7.80688 4.00291 10.3487 4 13C4 18.282 12.4 25.533 13.354 26.343L14 26.889L14.646 26.343C15.6 25.533 24 18.282 24 13C23.9971 10.3487 22.9426 7.80688 21.0679 5.93215C19.1931 4.05742 16.6513 3.00291 14 3ZM14 18C13.0111 18 12.0444 17.7068 11.2221 17.1573C10.3999 16.6079 9.75904 15.827 9.3806 14.9134C9.00216 13.9998 8.90315 12.9945 9.09607 12.0245C9.289 11.0546 9.7652 10.1637 10.4645 9.46447C11.1637 8.7652 12.0546 8.289 13.0245 8.09607C13.9945 7.90315 14.9998 8.00216 15.9134 8.3806C16.827 8.75904 17.6079 9.3999 18.1573 10.2221C18.7068 11.0444 19 12.0111 19 13C18.9984 14.3256 18.4711 15.5964 17.5338 16.5338C16.5964 17.4711 15.3256 17.9984 14 18Z" fill="rgb(56,103,1)" fill-rule="nonzero" />
		<path id="Vector" d="M14 16C15.6569 16 17 14.6569 17 13C17 11.3431 15.6569 10 14 10C12.3431 10 11 11.3431 11 13C11 14.6569 12.3431 16 14 16Z" fill="rgb(255,255,255)" fill-rule="evenodd" />
		<path id="Vector" d="M14 16C15.6569 16 17 14.6569 17 13C17 11.3431 15.6569 10 14 10C12.3431 10 11 11.3431 11 13C11 14.6569 12.3431 16 14 16Z" fill="url(#paint_linear_2)" fill-opacity="0" fill-rule="evenodd" />
		<path id="Vector" d="M14 16C15.6569 16 17 14.6569 17 13C17 11.3431 15.6569 10 14 10C12.3431 10 11 11.3431 11 13C11 14.6569 12.3431 16 14 16Z" fill="rgb(0,83.6719,95.625)" fill-rule="evenodd" />
		<path id="Vector" d="M14 16C15.6569 16 17 14.6569 17 13C17 11.3431 15.6569 10 14 10C12.3431 10 11 11.3431 11 13C11 14.6569 12.3431 16 14 16Z" fill="url(#paint_linear_3)" fill-rule="evenodd" />
		<path id="Vector" d="M14 16C15.6569 16 17 14.6569 17 13C17 11.3431 15.6569 10 14 10C12.3431 10 11 11.3431 11 13C11 14.6569 12.3431 16 14 16Z" fill="rgb(56,103,1)" fill-rule="evenodd" />
	</g>
</svg>
